<mxfile host="app.diagrams.net" agent="Mozilla/5.0 (Windows NT 10.0; Win64; x64) AppleWebKit/537.36 (KHTML, like Gecko) Chrome/136.0.0.0 Safari/537.36" version="27.1.1">
  <diagram name="Page-1" id="5YlvU0HNKvhpue9AHyGh">
    <mxGraphModel dx="902" dy="464" grid="1" gridSize="10" guides="1" tooltips="1" connect="1" arrows="1" fold="1" page="1" pageScale="1" pageWidth="850" pageHeight="1100" background="light-dark(#FFFFFF,#FFFFFF)" math="0" shadow="0">
      <root>
        <mxCell id="0" />
        <mxCell id="1" parent="0" />
        <mxCell id="7pMr421BL7AeJPfHvYVF-1" value="List" style="swimlane;fontStyle=0;childLayout=stackLayout;horizontal=1;startSize=30;horizontalStack=0;resizeParent=1;resizeParentMax=0;resizeLast=0;collapsible=1;marginBottom=0;whiteSpace=wrap;html=1;strokeColor=light-dark(#000000,#000000);fontColor=light-dark(#000000,#000000);" vertex="1" parent="1">
          <mxGeometry x="390" y="220" width="140" height="120" as="geometry" />
        </mxCell>
        <mxCell id="7pMr421BL7AeJPfHvYVF-2" value="Item 1" style="text;align=left;verticalAlign=middle;spacingLeft=4;spacingRight=4;overflow=hidden;points=[[0,0.5],[1,0.5]];portConstraint=eastwest;rotatable=0;whiteSpace=wrap;html=1;strokeColor=light-dark(#000000,#000000);fontColor=light-dark(#000000,#000000);" vertex="1" parent="7pMr421BL7AeJPfHvYVF-1">
          <mxGeometry y="30" width="140" height="30" as="geometry" />
        </mxCell>
        <mxCell id="7pMr421BL7AeJPfHvYVF-3" value="Mno: int&amp;nbsp;" style="text;align=left;verticalAlign=middle;spacingLeft=4;spacingRight=4;overflow=hidden;points=[[0,0.5],[1,0.5]];portConstraint=eastwest;rotatable=0;whiteSpace=wrap;html=1;strokeColor=light-dark(#000000,#000000);fontColor=light-dark(#000000,#000000);" vertex="1" parent="7pMr421BL7AeJPfHvYVF-1">
          <mxGeometry y="60" width="140" height="30" as="geometry" />
        </mxCell>
        <mxCell id="7pMr421BL7AeJPfHvYVF-4" value="mrequestforbk()&lt;div&gt;mreturnbk&lt;/div&gt;" style="text;align=left;verticalAlign=middle;spacingLeft=4;spacingRight=4;overflow=hidden;points=[[0,0.5],[1,0.5]];portConstraint=eastwest;rotatable=0;whiteSpace=wrap;html=1;strokeColor=light-dark(#000000,#000000);fontColor=light-dark(#000000,#000000);" vertex="1" parent="7pMr421BL7AeJPfHvYVF-1">
          <mxGeometry y="90" width="140" height="30" as="geometry" />
        </mxCell>
        <mxCell id="7pMr421BL7AeJPfHvYVF-40" style="edgeStyle=orthogonalEdgeStyle;rounded=0;orthogonalLoop=1;jettySize=auto;html=1;strokeColor=light-dark(#000000,#000000);fontColor=light-dark(#000000,#000000);" edge="1" parent="1" source="7pMr421BL7AeJPfHvYVF-5">
          <mxGeometry relative="1" as="geometry">
            <mxPoint x="480" y="180" as="targetPoint" />
          </mxGeometry>
        </mxCell>
        <mxCell id="7pMr421BL7AeJPfHvYVF-5" value="member&amp;nbsp;" style="swimlane;fontStyle=0;childLayout=stackLayout;horizontal=1;startSize=30;horizontalStack=0;resizeParent=1;resizeParentMax=0;resizeLast=0;collapsible=1;marginBottom=0;whiteSpace=wrap;html=1;strokeColor=light-dark(#000000,#000000);fontColor=light-dark(#000000,#000000);" vertex="1" parent="1">
          <mxGeometry x="390" y="220" width="140" height="60" as="geometry" />
        </mxCell>
        <mxCell id="7pMr421BL7AeJPfHvYVF-6" value="Mname: string&amp;nbsp;&lt;div&gt;Maddress: string&lt;/div&gt;" style="text;align=left;verticalAlign=middle;spacingLeft=4;spacingRight=4;overflow=hidden;points=[[0,0.5],[1,0.5]];portConstraint=eastwest;rotatable=0;whiteSpace=wrap;html=1;strokeColor=light-dark(#000000,#000000);fontColor=light-dark(#000000,#000000);" vertex="1" parent="7pMr421BL7AeJPfHvYVF-5">
          <mxGeometry y="30" width="140" height="30" as="geometry" />
        </mxCell>
        <mxCell id="7pMr421BL7AeJPfHvYVF-38" style="edgeStyle=orthogonalEdgeStyle;rounded=0;orthogonalLoop=1;jettySize=auto;html=1;strokeColor=light-dark(#000000,#000000);fontColor=light-dark(#000000,#000000);" edge="1" parent="1" source="7pMr421BL7AeJPfHvYVF-13">
          <mxGeometry relative="1" as="geometry">
            <mxPoint x="170" y="180" as="targetPoint" />
          </mxGeometry>
        </mxCell>
        <mxCell id="7pMr421BL7AeJPfHvYVF-13" value="BOOKS" style="swimlane;fontStyle=0;childLayout=stackLayout;horizontal=1;startSize=30;horizontalStack=0;resizeParent=1;resizeParentMax=0;resizeLast=0;collapsible=1;marginBottom=0;whiteSpace=wrap;html=1;strokeColor=light-dark(#000000,#000000);fontColor=light-dark(#000000,#000000);" vertex="1" parent="1">
          <mxGeometry x="100" y="240" width="140" height="120" as="geometry" />
        </mxCell>
        <mxCell id="7pMr421BL7AeJPfHvYVF-14" value="authorname : string&amp;nbsp;" style="text;align=left;verticalAlign=middle;spacingLeft=4;spacingRight=4;overflow=hidden;points=[[0,0.5],[1,0.5]];portConstraint=eastwest;rotatable=0;whiteSpace=wrap;html=1;strokeColor=light-dark(#000000,#000000);fontColor=light-dark(#000000,#000000);" vertex="1" parent="7pMr421BL7AeJPfHvYVF-13">
          <mxGeometry y="30" width="140" height="30" as="geometry" />
        </mxCell>
        <mxCell id="7pMr421BL7AeJPfHvYVF-15" value="noofbooks :&amp;nbsp; int&amp;nbsp;" style="text;align=left;verticalAlign=middle;spacingLeft=4;spacingRight=4;overflow=hidden;points=[[0,0.5],[1,0.5]];portConstraint=eastwest;rotatable=0;whiteSpace=wrap;html=1;strokeColor=light-dark(#000000,#000000);fontColor=light-dark(#000000,#000000);" vertex="1" parent="7pMr421BL7AeJPfHvYVF-13">
          <mxGeometry y="60" width="140" height="30" as="geometry" />
        </mxCell>
        <mxCell id="7pMr421BL7AeJPfHvYVF-16" value="removefircatalog()&lt;br&gt;addtocatalog ()" style="text;align=left;verticalAlign=middle;spacingLeft=4;spacingRight=4;overflow=hidden;points=[[0,0.5],[1,0.5]];portConstraint=eastwest;rotatable=0;whiteSpace=wrap;html=1;strokeColor=light-dark(#000000,#000000);fontColor=light-dark(#000000,#000000);" vertex="1" parent="7pMr421BL7AeJPfHvYVF-13">
          <mxGeometry y="90" width="140" height="30" as="geometry" />
        </mxCell>
        <mxCell id="7pMr421BL7AeJPfHvYVF-17" value="catalog" style="swimlane;fontStyle=0;childLayout=stackLayout;horizontal=1;startSize=30;horizontalStack=0;resizeParent=1;resizeParentMax=0;resizeLast=0;collapsible=1;marginBottom=0;whiteSpace=wrap;html=1;strokeColor=light-dark(#000000,#000000);" vertex="1" parent="1">
          <mxGeometry x="100" y="55" width="140" height="120" as="geometry" />
        </mxCell>
        <mxCell id="7pMr421BL7AeJPfHvYVF-18" value="+authorname : string&amp;nbsp;&lt;div&gt;noofcopies: integer&amp;nbsp;&lt;/div&gt;" style="text;align=left;verticalAlign=middle;spacingLeft=4;spacingRight=4;overflow=hidden;points=[[0,0.5],[1,0.5]];portConstraint=eastwest;rotatable=0;whiteSpace=wrap;html=1;strokeColor=light-dark(#000000,#000000);fontColor=light-dark(#000000,#000000);" vertex="1" parent="7pMr421BL7AeJPfHvYVF-17">
          <mxGeometry y="30" width="140" height="30" as="geometry" />
        </mxCell>
        <mxCell id="7pMr421BL7AeJPfHvYVF-19" value="+upadateinfo()" style="text;align=left;verticalAlign=middle;spacingLeft=4;spacingRight=4;overflow=hidden;points=[[0,0.5],[1,0.5]];portConstraint=eastwest;rotatable=0;whiteSpace=wrap;html=1;strokeColor=light-dark(#000000,#000000);fontColor=light-dark(#000000,#000000);" vertex="1" parent="7pMr421BL7AeJPfHvYVF-17">
          <mxGeometry y="60" width="140" height="30" as="geometry" />
        </mxCell>
        <mxCell id="7pMr421BL7AeJPfHvYVF-20" value="+searching&amp;nbsp;" style="text;align=left;verticalAlign=middle;spacingLeft=4;spacingRight=4;overflow=hidden;points=[[0,0.5],[1,0.5]];portConstraint=eastwest;rotatable=0;whiteSpace=wrap;html=1;strokeColor=light-dark(#000000,#000000);fontColor=light-dark(#000000,#000000);" vertex="1" parent="7pMr421BL7AeJPfHvYVF-17">
          <mxGeometry y="90" width="140" height="30" as="geometry" />
        </mxCell>
        <mxCell id="7pMr421BL7AeJPfHvYVF-21" value="List" style="swimlane;fontStyle=0;childLayout=stackLayout;horizontal=1;startSize=30;horizontalStack=0;resizeParent=1;resizeParentMax=0;resizeLast=0;collapsible=1;marginBottom=0;whiteSpace=wrap;html=1;strokeColor=light-dark(#000000,#000000);fontColor=light-dark(#000000,#000000);" vertex="1" parent="1">
          <mxGeometry x="670" y="240" width="140" height="120" as="geometry" />
        </mxCell>
        <mxCell id="7pMr421BL7AeJPfHvYVF-22" value="issuedate : date&amp;nbsp;&amp;nbsp;&lt;div&gt;bookname : string&amp;nbsp;&lt;/div&gt;" style="text;align=left;verticalAlign=middle;spacingLeft=4;spacingRight=4;overflow=hidden;points=[[0,0.5],[1,0.5]];portConstraint=eastwest;rotatable=0;whiteSpace=wrap;html=1;strokeColor=light-dark(#000000,#000000);fontColor=light-dark(#000000,#000000);" vertex="1" parent="7pMr421BL7AeJPfHvYVF-21">
          <mxGeometry y="30" width="140" height="30" as="geometry" />
        </mxCell>
        <mxCell id="7pMr421BL7AeJPfHvYVF-23" value="returndate :date&amp;nbsp;&lt;div&gt;finecall :()&lt;/div&gt;" style="text;align=left;verticalAlign=middle;spacingLeft=4;spacingRight=4;overflow=hidden;points=[[0,0.5],[1,0.5]];portConstraint=eastwest;rotatable=0;whiteSpace=wrap;html=1;strokeColor=light-dark(#000000,#000000);fontColor=light-dark(#000000,#000000);" vertex="1" parent="7pMr421BL7AeJPfHvYVF-21">
          <mxGeometry y="60" width="140" height="30" as="geometry" />
        </mxCell>
        <mxCell id="7pMr421BL7AeJPfHvYVF-24" value="viewalert()&lt;div&gt;deletealrtbyno()&lt;/div&gt;" style="text;align=left;verticalAlign=middle;spacingLeft=4;spacingRight=4;overflow=hidden;points=[[0,0.5],[1,0.5]];portConstraint=eastwest;rotatable=0;whiteSpace=wrap;html=1;strokeColor=light-dark(#000000,#000000);fontColor=light-dark(#000000,#000000);" vertex="1" parent="7pMr421BL7AeJPfHvYVF-21">
          <mxGeometry y="90" width="140" height="30" as="geometry" />
        </mxCell>
        <mxCell id="7pMr421BL7AeJPfHvYVF-25" value="student&amp;nbsp;" style="swimlane;fontStyle=0;childLayout=stackLayout;horizontal=1;startSize=30;horizontalStack=0;resizeParent=1;resizeParentMax=0;resizeLast=0;collapsible=1;marginBottom=0;whiteSpace=wrap;html=1;strokeColor=light-dark(#000000,#000000);fontColor=light-dark(#000000,#000000);" vertex="1" parent="1">
          <mxGeometry x="560" y="400" width="140" height="120" as="geometry" />
        </mxCell>
        <mxCell id="7pMr421BL7AeJPfHvYVF-26" value="s name : string&amp;nbsp;" style="text;align=left;verticalAlign=middle;spacingLeft=4;spacingRight=4;overflow=hidden;points=[[0,0.5],[1,0.5]];portConstraint=eastwest;rotatable=0;whiteSpace=wrap;html=1;strokeColor=light-dark(#000000,#000000);fontColor=light-dark(#000000,#000000);" vertex="1" parent="7pMr421BL7AeJPfHvYVF-25">
          <mxGeometry y="30" width="140" height="30" as="geometry" />
        </mxCell>
        <mxCell id="7pMr421BL7AeJPfHvYVF-27" value="studentcoll: string&amp;nbsp;" style="text;align=left;verticalAlign=middle;spacingLeft=4;spacingRight=4;overflow=hidden;points=[[0,0.5],[1,0.5]];portConstraint=eastwest;rotatable=0;whiteSpace=wrap;html=1;strokeColor=light-dark(#000000,#000000);fontColor=light-dark(#000000,#000000);" vertex="1" parent="7pMr421BL7AeJPfHvYVF-25">
          <mxGeometry y="60" width="140" height="30" as="geometry" />
        </mxCell>
        <mxCell id="7pMr421BL7AeJPfHvYVF-28" value="checkoutbk()" style="text;align=left;verticalAlign=middle;spacingLeft=4;spacingRight=4;overflow=hidden;points=[[0,0.5],[1,0.5]];portConstraint=eastwest;rotatable=0;whiteSpace=wrap;html=1;strokeColor=light-dark(#000000,#000000);fontColor=light-dark(#000000,#000000);" vertex="1" parent="7pMr421BL7AeJPfHvYVF-25">
          <mxGeometry y="90" width="140" height="30" as="geometry" />
        </mxCell>
        <mxCell id="7pMr421BL7AeJPfHvYVF-29" value="Faculty member&amp;nbsp;" style="swimlane;fontStyle=0;childLayout=stackLayout;horizontal=1;startSize=30;horizontalStack=0;resizeParent=1;resizeParentMax=0;resizeLast=0;collapsible=1;marginBottom=0;whiteSpace=wrap;html=1;strokeColor=light-dark(#000000,#000000);fontColor=light-dark(#000000,#000000);" vertex="1" parent="1">
          <mxGeometry x="285" y="400" width="140" height="120" as="geometry" />
        </mxCell>
        <mxCell id="7pMr421BL7AeJPfHvYVF-30" value="Fname&amp;nbsp;" style="text;align=left;verticalAlign=middle;spacingLeft=4;spacingRight=4;overflow=hidden;points=[[0,0.5],[1,0.5]];portConstraint=eastwest;rotatable=0;whiteSpace=wrap;html=1;strokeColor=light-dark(#000000,#000000);fontColor=light-dark(#000000,#000000);" vertex="1" parent="7pMr421BL7AeJPfHvYVF-29">
          <mxGeometry y="30" width="140" height="30" as="geometry" />
        </mxCell>
        <mxCell id="7pMr421BL7AeJPfHvYVF-31" value="facultycoll" style="text;align=left;verticalAlign=middle;spacingLeft=4;spacingRight=4;overflow=hidden;points=[[0,0.5],[1,0.5]];portConstraint=eastwest;rotatable=0;whiteSpace=wrap;html=1;strokeColor=light-dark(#000000,#000000);fontColor=light-dark(#000000,#000000);" vertex="1" parent="7pMr421BL7AeJPfHvYVF-29">
          <mxGeometry y="60" width="140" height="30" as="geometry" />
        </mxCell>
        <mxCell id="7pMr421BL7AeJPfHvYVF-32" value="checkoutbk()" style="text;align=left;verticalAlign=middle;spacingLeft=4;spacingRight=4;overflow=hidden;points=[[0,0.5],[1,0.5]];portConstraint=eastwest;rotatable=0;whiteSpace=wrap;html=1;strokeColor=light-dark(#000000,#000000);fontColor=light-dark(#000000,#000000);" vertex="1" parent="7pMr421BL7AeJPfHvYVF-29">
          <mxGeometry y="90" width="140" height="30" as="geometry" />
        </mxCell>
        <mxCell id="7pMr421BL7AeJPfHvYVF-33" value="libraian" style="swimlane;fontStyle=0;childLayout=stackLayout;horizontal=1;startSize=30;horizontalStack=0;resizeParent=1;resizeParentMax=0;resizeLast=0;collapsible=1;marginBottom=0;whiteSpace=wrap;html=1;strokeColor=light-dark(#000000,#000000);" vertex="1" parent="1">
          <mxGeometry x="430" y="55" width="140" height="120" as="geometry" />
        </mxCell>
        <mxCell id="7pMr421BL7AeJPfHvYVF-34" value="name: string&amp;nbsp;&lt;div&gt;address : string&amp;nbsp;&lt;/div&gt;" style="text;align=left;verticalAlign=middle;spacingLeft=4;spacingRight=4;overflow=hidden;points=[[0,0.5],[1,0.5]];portConstraint=eastwest;rotatable=0;whiteSpace=wrap;html=1;strokeColor=light-dark(#000000,#000000);fontColor=light-dark(#000000,#000000);" vertex="1" parent="7pMr421BL7AeJPfHvYVF-33">
          <mxGeometry y="30" width="140" height="30" as="geometry" />
        </mxCell>
        <mxCell id="7pMr421BL7AeJPfHvYVF-35" value="mobileno : int&amp;nbsp;" style="text;align=left;verticalAlign=middle;spacingLeft=4;spacingRight=4;overflow=hidden;points=[[0,0.5],[1,0.5]];portConstraint=eastwest;rotatable=0;whiteSpace=wrap;html=1;strokeColor=light-dark(#000000,#000000);fontColor=light-dark(#000000,#000000);" vertex="1" parent="7pMr421BL7AeJPfHvYVF-33">
          <mxGeometry y="60" width="140" height="30" as="geometry" />
        </mxCell>
        <mxCell id="7pMr421BL7AeJPfHvYVF-36" value="updateinfo()&lt;div&gt;issuebooks()&amp;nbsp;&lt;/div&gt;" style="text;align=left;verticalAlign=middle;spacingLeft=4;spacingRight=4;overflow=hidden;points=[[0,0.5],[1,0.5]];portConstraint=eastwest;rotatable=0;whiteSpace=wrap;html=1;strokeColor=light-dark(#000000,#000000);fontColor=light-dark(#000000,#000000);" vertex="1" parent="7pMr421BL7AeJPfHvYVF-33">
          <mxGeometry y="90" width="140" height="30" as="geometry" />
        </mxCell>
        <mxCell id="7pMr421BL7AeJPfHvYVF-39" style="edgeStyle=orthogonalEdgeStyle;rounded=0;orthogonalLoop=1;jettySize=auto;html=1;entryX=1;entryY=0.5;entryDx=0;entryDy=0;strokeColor=light-dark(#000000,#000000);fontColor=light-dark(#000000,#000000);" edge="1" parent="1" source="7pMr421BL7AeJPfHvYVF-35" target="7pMr421BL7AeJPfHvYVF-15">
          <mxGeometry relative="1" as="geometry" />
        </mxCell>
        <mxCell id="7pMr421BL7AeJPfHvYVF-41" style="edgeStyle=orthogonalEdgeStyle;rounded=0;orthogonalLoop=1;jettySize=auto;html=1;entryX=0.5;entryY=0;entryDx=0;entryDy=0;strokeColor=light-dark(#000000,#000000);fontColor=light-dark(#000000,#000000);" edge="1" parent="1" target="7pMr421BL7AeJPfHvYVF-29">
          <mxGeometry relative="1" as="geometry">
            <mxPoint x="390" y="295" as="sourcePoint" />
          </mxGeometry>
        </mxCell>
        <mxCell id="7pMr421BL7AeJPfHvYVF-42" style="edgeStyle=orthogonalEdgeStyle;rounded=0;orthogonalLoop=1;jettySize=auto;html=1;entryX=0.453;entryY=-0.033;entryDx=0;entryDy=0;entryPerimeter=0;strokeColor=light-dark(#000000,#000000);fontColor=light-dark(#000000,#000000);" edge="1" parent="1" target="7pMr421BL7AeJPfHvYVF-25">
          <mxGeometry relative="1" as="geometry">
            <mxPoint x="530" y="295" as="sourcePoint" />
          </mxGeometry>
        </mxCell>
        <mxCell id="7pMr421BL7AeJPfHvYVF-43" style="edgeStyle=orthogonalEdgeStyle;rounded=0;orthogonalLoop=1;jettySize=auto;html=1;entryX=0.577;entryY=-0.021;entryDx=0;entryDy=0;entryPerimeter=0;strokeColor=light-dark(#000000,#000000);fontColor=light-dark(#000000,#000000);" edge="1" parent="1" source="7pMr421BL7AeJPfHvYVF-35" target="7pMr421BL7AeJPfHvYVF-21">
          <mxGeometry relative="1" as="geometry" />
        </mxCell>
      </root>
    </mxGraphModel>
  </diagram>
</mxfile>
